<mxfile host="app.diagrams.net" modified="2022-07-11T14:18:56.782Z" agent="5.0 (Windows NT 10.0; Win64; x64) AppleWebKit/537.36 (KHTML, like Gecko) Chrome/103.0.5060.66 Safari/537.36 Edg/103.0.1264.44" etag="LBfOBTVL6pbV466sEw1j" version="20.0.1" type="github">
  <diagram id="uUhIRwJII2Dc9x-m6H8B" name="Page-1">
    <mxGraphModel dx="734" dy="428" grid="1" gridSize="10" guides="1" tooltips="1" connect="1" arrows="1" fold="1" page="1" pageScale="1" pageWidth="827" pageHeight="1169" math="0" shadow="0">
      <root>
        <mxCell id="0" />
        <mxCell id="1" parent="0" />
        <mxCell id="0yK8hHSzg7FP9k2CC4zy-1" value="测试流程" style="swimlane;childLayout=stackLayout;resizeParent=1;resizeParentMax=0;startSize=20;" parent="1" vertex="1">
          <mxGeometry x="220" y="10" width="417.5" height="480" as="geometry" />
        </mxCell>
        <mxCell id="0yK8hHSzg7FP9k2CC4zy-2" value="开发人员" style="swimlane;startSize=20;" parent="0yK8hHSzg7FP9k2CC4zy-1" vertex="1">
          <mxGeometry y="20" width="130" height="460" as="geometry" />
        </mxCell>
        <mxCell id="0yK8hHSzg7FP9k2CC4zy-5" value="实现功能并自测" style="rounded=1;whiteSpace=wrap;html=1;" parent="0yK8hHSzg7FP9k2CC4zy-2" vertex="1">
          <mxGeometry x="15" y="50" width="100" height="40" as="geometry" />
        </mxCell>
        <mxCell id="0yK8hHSzg7FP9k2CC4zy-3" value="测试人员" style="swimlane;startSize=20;" parent="0yK8hHSzg7FP9k2CC4zy-1" vertex="1">
          <mxGeometry x="130" y="20" width="165" height="460" as="geometry" />
        </mxCell>
        <mxCell id="0yK8hHSzg7FP9k2CC4zy-6" value="给测试人员展示功能" style="rounded=1;whiteSpace=wrap;html=1;" parent="0yK8hHSzg7FP9k2CC4zy-3" vertex="1">
          <mxGeometry x="21.75" y="50" width="96.5" height="40" as="geometry" />
        </mxCell>
        <mxCell id="BMzEri6EMmztVmvViAoe-6" value="提交问题反馈，转给开发" style="whiteSpace=wrap;html=1;rounded=1;" vertex="1" parent="0yK8hHSzg7FP9k2CC4zy-3">
          <mxGeometry x="20" y="350" width="100" height="50" as="geometry" />
        </mxCell>
        <mxCell id="BMzEri6EMmztVmvViAoe-9" value="否" style="text;html=1;strokeColor=none;fillColor=none;align=center;verticalAlign=middle;whiteSpace=wrap;rounded=0;" vertex="1" parent="0yK8hHSzg7FP9k2CC4zy-3">
          <mxGeometry x="70" y="230" width="40" height="20" as="geometry" />
        </mxCell>
        <mxCell id="BMzEri6EMmztVmvViAoe-10" value="是" style="text;html=1;strokeColor=none;fillColor=none;align=center;verticalAlign=middle;whiteSpace=wrap;rounded=0;" vertex="1" parent="0yK8hHSzg7FP9k2CC4zy-3">
          <mxGeometry x="110" y="230" width="45" height="20" as="geometry" />
        </mxCell>
        <mxCell id="BMzEri6EMmztVmvViAoe-2" value="测试是否通过" style="rhombus;whiteSpace=wrap;html=1;rounded=1;" vertex="1" parent="0yK8hHSzg7FP9k2CC4zy-3">
          <mxGeometry x="30" y="210" width="80" height="80" as="geometry" />
        </mxCell>
        <mxCell id="BMzEri6EMmztVmvViAoe-7" value="" style="edgeStyle=orthogonalEdgeStyle;rounded=0;orthogonalLoop=1;jettySize=auto;html=1;" edge="1" parent="0yK8hHSzg7FP9k2CC4zy-3" source="BMzEri6EMmztVmvViAoe-2" target="BMzEri6EMmztVmvViAoe-6">
          <mxGeometry relative="1" as="geometry" />
        </mxCell>
        <mxCell id="BMzEri6EMmztVmvViAoe-11" value="测试人员进行测试" style="whiteSpace=wrap;html=1;rounded=1;" vertex="1" parent="0yK8hHSzg7FP9k2CC4zy-3">
          <mxGeometry x="20" y="130" width="100" height="50" as="geometry" />
        </mxCell>
        <mxCell id="BMzEri6EMmztVmvViAoe-12" value="" style="edgeStyle=orthogonalEdgeStyle;rounded=0;orthogonalLoop=1;jettySize=auto;html=1;" edge="1" parent="0yK8hHSzg7FP9k2CC4zy-3" source="0yK8hHSzg7FP9k2CC4zy-6" target="BMzEri6EMmztVmvViAoe-11">
          <mxGeometry relative="1" as="geometry" />
        </mxCell>
        <mxCell id="BMzEri6EMmztVmvViAoe-13" value="" style="edgeStyle=orthogonalEdgeStyle;rounded=0;orthogonalLoop=1;jettySize=auto;html=1;endArrow=none;" edge="1" parent="0yK8hHSzg7FP9k2CC4zy-3" source="0yK8hHSzg7FP9k2CC4zy-6" target="BMzEri6EMmztVmvViAoe-11">
          <mxGeometry relative="1" as="geometry">
            <mxPoint x="70.09999999999991" y="90" as="sourcePoint" />
            <mxPoint x="70" y="150" as="targetPoint" />
          </mxGeometry>
        </mxCell>
        <mxCell id="BMzEri6EMmztVmvViAoe-3" value="" style="edgeStyle=orthogonalEdgeStyle;rounded=0;orthogonalLoop=1;jettySize=auto;html=1;startArrow=none;" edge="1" parent="0yK8hHSzg7FP9k2CC4zy-3" source="BMzEri6EMmztVmvViAoe-11" target="BMzEri6EMmztVmvViAoe-2">
          <mxGeometry relative="1" as="geometry" />
        </mxCell>
        <mxCell id="BMzEri6EMmztVmvViAoe-1" value="" style="edgeStyle=orthogonalEdgeStyle;rounded=0;orthogonalLoop=1;jettySize=auto;html=1;" edge="1" parent="0yK8hHSzg7FP9k2CC4zy-1" source="0yK8hHSzg7FP9k2CC4zy-5" target="0yK8hHSzg7FP9k2CC4zy-6">
          <mxGeometry relative="1" as="geometry" />
        </mxCell>
        <mxCell id="BMzEri6EMmztVmvViAoe-8" style="edgeStyle=orthogonalEdgeStyle;rounded=0;orthogonalLoop=1;jettySize=auto;html=1;entryX=0.5;entryY=1;entryDx=0;entryDy=0;" edge="1" parent="0yK8hHSzg7FP9k2CC4zy-1" source="BMzEri6EMmztVmvViAoe-6" target="0yK8hHSzg7FP9k2CC4zy-5">
          <mxGeometry relative="1" as="geometry" />
        </mxCell>
        <mxCell id="BMzEri6EMmztVmvViAoe-5" value="" style="edgeStyle=orthogonalEdgeStyle;rounded=0;orthogonalLoop=1;jettySize=auto;html=1;" edge="1" parent="0yK8hHSzg7FP9k2CC4zy-1" source="BMzEri6EMmztVmvViAoe-2" target="BMzEri6EMmztVmvViAoe-4">
          <mxGeometry relative="1" as="geometry" />
        </mxCell>
        <mxCell id="0yK8hHSzg7FP9k2CC4zy-4" value="项目经理" style="swimlane;startSize=20;" parent="0yK8hHSzg7FP9k2CC4zy-1" vertex="1">
          <mxGeometry x="295" y="20" width="122.5" height="460" as="geometry" />
        </mxCell>
        <mxCell id="BMzEri6EMmztVmvViAoe-16" value="" style="edgeStyle=orthogonalEdgeStyle;rounded=0;orthogonalLoop=1;jettySize=auto;html=1;" edge="1" parent="0yK8hHSzg7FP9k2CC4zy-4" source="BMzEri6EMmztVmvViAoe-4" target="BMzEri6EMmztVmvViAoe-15">
          <mxGeometry relative="1" as="geometry" />
        </mxCell>
        <mxCell id="BMzEri6EMmztVmvViAoe-4" value="根据缺陷产生报表并查看" style="whiteSpace=wrap;html=1;rounded=1;" vertex="1" parent="0yK8hHSzg7FP9k2CC4zy-4">
          <mxGeometry x="13.75" y="225" width="95" height="50" as="geometry" />
        </mxCell>
        <mxCell id="BMzEri6EMmztVmvViAoe-15" value="了解开发质量" style="whiteSpace=wrap;html=1;rounded=1;" vertex="1" parent="0yK8hHSzg7FP9k2CC4zy-4">
          <mxGeometry x="13.75" y="340" width="97.5" height="40" as="geometry" />
        </mxCell>
        <mxCell id="BMzEri6EMmztVmvViAoe-17" value="开发开发时测试也在编写测试用例" style="text;html=1;strokeColor=none;fillColor=none;align=center;verticalAlign=middle;whiteSpace=wrap;rounded=0;" vertex="1" parent="1">
          <mxGeometry x="650" y="50" width="100" height="60" as="geometry" />
        </mxCell>
      </root>
    </mxGraphModel>
  </diagram>
</mxfile>
